<?xml version="1.0" encoding="UTF-8"?>
<svg width="16px" height="16px" viewBox="0 0 16 16" version="1.1" xmlns="http://www.w3.org/2000/svg" xmlns:xlink="http://www.w3.org/1999/xlink">
    <title>Icons/Menu</title>
    <defs>
        <path d="M20.5209121,5.47166184 C20.8672234,5.81797315 20.8847697,6.36190842 20.5601028,6.68657527 L14.25,12.996 L20.5675289,19.3134247 C20.8921958,19.6380916 20.8746495,20.1820269 20.5283382,20.5283382 C20.1820269,20.8746495 19.6380916,20.8921958 19.3134247,20.5675289 L12.996,14.25 L6.68657527,20.5601028 C6.36190842,20.8847697 5.81797315,20.8672234 5.47166184,20.5209121 C5.12535053,20.1746008 5.10780423,19.6306655 5.43247108,19.3059986 L11.741,12.996 L5.43989718,6.69400137 C5.11523033,6.36933452 5.13277663,5.82539925 5.47908794,5.47908794 C5.82539925,5.13277663 6.36933452,5.11523033 6.69400137,5.43989718 L12.996,11.741 L19.3059986,5.43247108 C19.6306655,5.10780423 20.1746008,5.12535053 20.5209121,5.47166184 Z" id="path-1"></path>
    </defs>
    <g id="Mobile---414px" stroke="none" stroke-width="1" fill="none" fill-rule="evenodd">
        <g id="Menu" transform="translate(-28.000000, -22.000000)">
            <g transform="translate(23.000000, 15.000000)" id="Group">
                <g transform="translate(0.000000, 2.000000)" id="Icons/Menu">
                    <mask id="mask-2" fill="white">
                        <use xlink:href="#path-1"></use>
                    </mask>
                    <use id="Combined-Shape" fill="#BCBABA" fill-rule="nonzero" xlink:href="#path-1"></use>
                </g>
            </g>
        </g>
    </g>
</svg>